<svg width="32" height="32" fill="none" xmlns="http://www.w3.org/2000/svg"><g clip-path="url(#clip0_129_344)"><rect width="32" height="32" rx="4" fill="#fff"/><path d="M2.667 32h26.666A2.667 2.667 0 0032 29.333V2.667A2.667 2.667 0 0029.333 0H2.667A2.667 2.667 0 000 2.667v26.666A2.667 2.667 0 002.667 32zm13.4-9.4a1.333 1.333 0 010-1.883l3.383-3.384H9.333a1.333 1.333 0 110-2.666H19.45l-3.383-3.384A1.333 1.333 0 0117.95 9.4l5.65 5.65c.126.125.227.272.3.433.065.165.1.34.1.517 0 .172-.034.342-.1.5-.068.169-.17.322-.3.45l-5.65 5.65a1.333 1.333 0 01-1.883 0z" fill="#2BADE7"/></g><defs><clipPath id="clip0_129_344"><rect width="32" height="32" rx="4" fill="#fff"/></clipPath></defs></svg>