<svg width="41" height="43" fill="none" xmlns="http://www.w3.org/2000/svg"><path d="M39.292 12.541V1.791h-10.25m-1.709 12.542L39.292 1.792m-1.709 28.523v5.375c.002.499-.095.993-.286 1.45-.19.457-.47.867-.82 1.205a3.397 3.397 0 01-1.216.754c-.45.16-.928.22-1.402.174-5.257-.599-10.306-2.483-14.743-5.5-4.127-2.751-7.627-6.421-10.25-10.75A36.578 36.578 0 013.622 7.489a3.748 3.748 0 01.165-1.466 3.59 3.59 0 01.714-1.272 3.43 3.43 0 011.143-.862 3.282 3.282 0 011.377-.306h5.125c.83-.008 1.633.3 2.262.867a3.634 3.634 0 011.155 2.215 23.93 23.93 0 001.196 5.034c.23.642.28 1.339.143 2.009a3.64 3.64 0 01-.912 1.772l-2.17 2.275c2.432 4.486 5.974 8.2 10.25 10.75l2.17-2.275a3.372 3.372 0 011.69-.957 3.267 3.267 0 011.915.15 21.09 21.09 0 004.8 1.255 3.37 3.37 0 012.13 1.232c.541.67.83 1.526.808 2.405z" stroke="#fff" stroke-width="3" stroke-linecap="round" stroke-linejoin="round"/></svg>