<svg width="38" height="40" fill="none" xmlns="http://www.w3.org/2000/svg"><path d="M11.083 18.334l6.334-15c1.26 0 2.468.526 3.358 1.464a5.137 5.137 0 011.392 3.536V15h8.961c.46-.005.914.094 1.333.292a3.2 3.2 0 011.093.854c.301.365.523.794.651 1.258.128.464.159.952.09 1.43l-2.185 15a3.383 3.383 0 01-1.08 2.04 3.072 3.072 0 01-2.087.793h-17.86m0-18.334v18.334m0-18.334h-4.75a3.09 3.09 0 00-2.239.977 3.424 3.424 0 00-.927 2.357v11.666c0 .885.333 1.732.927 2.358a3.09 3.09 0 002.24.976h4.75" stroke="#fff" stroke-width="3" stroke-linecap="round" stroke-linejoin="round"/></svg>