<svg width="23" height="22" fill="none" xmlns="http://www.w3.org/2000/svg"><path d="M14.007 5.24A5.12 5.12 0 0116.6 6.547a4.69 4.69 0 011.38 2.455M14.007 1.43c2.04.215 3.943 1.08 5.395 2.455C20.855 5.259 21.771 7.06 22 8.993m-1.005 7.6v2.858a1.82 1.82 0 01-.169.77 1.911 1.911 0 01-.483.641c-.206.18-.45.316-.715.4a2.115 2.115 0 01-.825.094 20.618 20.618 0 01-8.676-2.924 19.123 19.123 0 01-6.032-5.715 18.22 18.22 0 01-3.087-8.258 1.811 1.811 0 01.097-.78c.09-.25.232-.48.42-.676a2.03 2.03 0 01.673-.458c.256-.107.532-.162.81-.162h3.017c.488-.005.96.159 1.33.46.37.302.612.72.68 1.178.128.914.364 1.812.704 2.676.136.341.165.712.085 1.068-.08.356-.267.683-.537.942L7.01 9.917c1.431 2.384 3.515 4.358 6.032 5.714l1.277-1.21c.273-.255.618-.432.994-.508a2.116 2.116 0 011.127.08c.912.323 1.86.546 2.825.667a2.04 2.04 0 011.254.655c.319.356.488.811.476 1.278z" stroke="#313131" stroke-linecap="round" stroke-linejoin="round"/></svg>