<svg width="23" height="22" fill="none" xmlns="http://www.w3.org/2000/svg"><path d="M19.038 3.172A11.015 11.015 0 0015.441.818 11.255 11.255 0 0011.188 0C5.073 0 .09 4.851.09 10.803c0 1.908.515 3.76 1.478 5.396L0 21.802l5.88-1.504a11.34 11.34 0 005.308 1.319c6.114 0 11.098-4.851 11.098-10.803 0-2.889-1.154-5.603-3.248-7.642zm-7.85 16.613a9.445 9.445 0 01-4.704-1.253l-.336-.196-3.494.894.93-3.314-.224-.338a8.833 8.833 0 01-1.411-4.775c0-4.95 4.143-8.982 9.227-8.982 2.464 0 4.782.937 6.518 2.638a8.909 8.909 0 012.004 2.914c.463 1.09.7 2.26.695 3.44.023 4.95-4.121 8.972-9.205 8.972zm5.062-6.715c-.28-.13-1.647-.784-1.893-.883-.258-.087-.437-.13-.627.131-.19.273-.717.883-.874 1.058-.156.185-.325.207-.604.065-.28-.13-1.176-.425-2.229-1.34-.829-.72-1.377-1.603-1.545-1.876-.157-.272-.023-.414.123-.556.123-.12.28-.316.414-.468.134-.153.19-.273.28-.447.09-.186.045-.338-.022-.47a88.43 88.43 0 01-.851-2.005c-.224-.523-.46-.458-.628-.469h-.537c-.19 0-.482.066-.74.338-.246.273-.962.927-.962 2.257s.996 2.616 1.13 2.79c.135.186 1.96 2.911 4.738 4.078.66.283 1.176.446 1.579.566.66.207 1.265.175 1.747.11.537-.077 1.646-.655 1.87-1.287.235-.632.235-1.166.157-1.286-.078-.12-.247-.175-.526-.306z" fill="#45CB7F"/></svg>