<svg width="32" height="32" fill="none" xmlns="http://www.w3.org/2000/svg"><g clip-path="url(#clip0_129_346)"><rect width="32" height="32" rx="4" transform="matrix(-1 0 0 1 32 0)" fill="#fff"/><path d="M29.333 32H2.667A2.667 2.667 0 010 29.333V2.667A2.667 2.667 0 012.667 0h26.666A2.667 2.667 0 0132 2.667v26.666A2.667 2.667 0 0129.333 32zm-13.4-9.4a1.333 1.333 0 000-1.883l-3.383-3.384h10.117a1.333 1.333 0 100-2.666H12.55l3.383-3.384A1.333 1.333 0 0014.05 9.4L8.4 15.05a1.45 1.45 0 00-.3.433c-.065.165-.1.34-.1.517 0 .172.034.342.1.5.068.169.17.322.3.45l5.65 5.65a1.333 1.333 0 001.883 0z" fill="#2BADE7"/></g><defs><clipPath id="clip0_129_346"><rect width="32" height="32" rx="4" transform="matrix(-1 0 0 1 32 0)" fill="#fff"/></clipPath></defs></svg>