<svg width="32" height="32" viewBox="0 0 32 32" fill="none" xmlns="http://www.w3.org/2000/svg">
<g clip-path="url(#clip0_129_346)">
<rect width="32" height="32" rx="4" transform="matrix(-1 0 0 1 32 0)" fill="white"/>
<path d="M29.3333 32H2.66667C1.95942 32 1.28115 31.719 0.781048 31.219C0.280951 30.7189 0 30.0406 0 29.3333V2.66667C0 1.95942 0.280951 1.28115 0.781048 0.781048C1.28115 0.280951 1.95942 0 2.66667 0H29.3333C30.0406 0 30.7189 0.280951 31.219 0.781048C31.719 1.28115 32 1.95942 32 2.66667V29.3333C32 30.0406 31.719 30.7189 31.219 31.219C30.7189 31.719 30.0406 32 29.3333 32ZM15.9333 22.6C16.1827 22.35 16.3227 22.0114 16.3227 21.6583C16.3227 21.3053 16.1827 20.9666 15.9333 20.7167L12.55 17.3333H22.6667C23.0203 17.3333 23.3594 17.1929 23.6095 16.9428C23.8595 16.6928 24 16.3536 24 16C24 15.6464 23.8595 15.3072 23.6095 15.0572C23.3594 14.8071 23.0203 14.6667 22.6667 14.6667H12.55L15.9333 11.2833C16.1631 11.0297 16.2866 10.6974 16.2782 10.3552C16.2698 10.0131 16.1301 9.68727 15.8881 9.44526C15.6461 9.20324 15.3202 9.06356 14.9781 9.05514C14.6359 9.04671 14.3036 9.17019 14.05 9.4L8.4 15.05C8.27437 15.1749 8.17269 15.3218 8.1 15.4833C8.03469 15.6478 8.00077 15.823 8 16C7.99955 16.1717 8.03356 16.3417 8.1 16.5C8.16821 16.6689 8.27031 16.8221 8.4 16.95L14.05 22.6C14.3 22.8494 14.6386 22.9894 14.9917 22.9894C15.3447 22.9894 15.6834 22.8494 15.9333 22.6Z" fill="#2BADE7"/>
</g>
<defs>
<clipPath id="clip0_129_346">
<rect width="32" height="32" rx="4" transform="matrix(-1 0 0 1 32 0)" fill="white"/>
</clipPath>
</defs>
</svg>
