<svg width="32" height="32" viewBox="0 0 32 32" fill="none" xmlns="http://www.w3.org/2000/svg">
<g clip-path="url(#clip0_129_344)">
<rect width="32" height="32" rx="4" fill="white"/>
<path d="M2.66667 32H29.3333C30.0406 32 30.7189 31.719 31.219 31.219C31.719 30.7189 32 30.0406 32 29.3333V2.66667C32 1.95942 31.719 1.28115 31.219 0.781048C30.7189 0.280951 30.0406 0 29.3333 0H2.66667C1.95942 0 1.28115 0.280951 0.781048 0.781048C0.280951 1.28115 0 1.95942 0 2.66667V29.3333C0 30.0406 0.280951 30.7189 0.781048 31.219C1.28115 31.719 1.95942 32 2.66667 32ZM16.0667 22.6C15.8173 22.35 15.6773 22.0114 15.6773 21.6583C15.6773 21.3053 15.8173 20.9666 16.0667 20.7167L19.45 17.3333H9.33333C8.97971 17.3333 8.64057 17.1929 8.39052 16.9428C8.14048 16.6928 8 16.3536 8 16C8 15.6464 8.14048 15.3072 8.39052 15.0572C8.64057 14.8071 8.97971 14.6667 9.33333 14.6667H19.45L16.0667 11.2833C15.8369 11.0297 15.7134 10.6974 15.7218 10.3552C15.7302 10.0131 15.8699 9.68727 16.1119 9.44526C16.3539 9.20324 16.6798 9.06356 17.0219 9.05514C17.3641 9.04671 17.6964 9.17019 17.95 9.4L23.6 15.05C23.7256 15.1749 23.8273 15.3218 23.9 15.4833C23.9653 15.6478 23.9992 15.823 24 16C24.0004 16.1717 23.9664 16.3417 23.9 16.5C23.8318 16.6689 23.7297 16.8221 23.6 16.95L17.95 22.6C17.7 22.8494 17.3614 22.9894 17.0083 22.9894C16.6553 22.9894 16.3166 22.8494 16.0667 22.6Z" fill="#2BADE7"/>
</g>
<defs>
<clipPath id="clip0_129_344">
<rect width="32" height="32" rx="4" fill="white"/>
</clipPath>
</defs>
</svg>
