<svg width="41" height="43" viewBox="0 0 41 43" fill="none" xmlns="http://www.w3.org/2000/svg">
<path d="M39.2917 12.5415V1.7915H29.0417" stroke="white" stroke-width="3" stroke-linecap="round" stroke-linejoin="round"/>
<path d="M27.3333 14.3332L39.2916 1.7915" stroke="white" stroke-width="3" stroke-linecap="round" stroke-linejoin="round"/>
<path d="M37.5833 30.3148V35.6898C37.5853 36.1888 37.4878 36.6827 37.2972 37.1399C37.1066 37.5971 36.827 38.0075 36.4765 38.3449C36.1259 38.6822 35.712 38.939 35.2613 39.0989C34.8106 39.2587 34.333 39.3181 33.8592 39.2732C28.6023 38.6741 23.5528 36.7902 19.1162 33.7728C14.9886 31.022 11.4891 27.3517 8.86624 23.0228C5.97912 18.3487 4.1824 13.027 3.62165 7.48901C3.57896 6.99356 3.63511 6.49421 3.78651 6.02276C3.93791 5.55131 4.18125 5.11808 4.50105 4.75067C4.82084 4.38326 5.21007 4.0897 5.64396 3.8887C6.07786 3.6877 6.5469 3.58365 7.02124 3.58318H12.1462C12.9753 3.57462 13.779 3.88253 14.4077 4.44951C15.0363 5.01649 15.4469 5.80386 15.5629 6.66485C15.7792 8.38497 16.1804 10.0739 16.7587 11.6994C16.9886 12.3407 17.0383 13.0377 16.9021 13.7077C16.7658 14.3777 16.4493 14.9927 15.99 15.4798L13.8204 17.7553C16.2523 22.2408 19.7935 25.9547 24.0704 28.5053L26.24 26.2299C26.7045 25.7481 27.2909 25.4162 27.9297 25.2733C28.5686 25.1304 29.2331 25.1825 29.8446 25.4236C31.3945 26.0302 33.0049 26.4509 34.645 26.6778C35.4748 26.8005 36.2327 27.2389 36.7745 27.9095C37.3162 28.5801 37.6041 29.4362 37.5833 30.3148Z" stroke="white" stroke-width="3" stroke-linecap="round" stroke-linejoin="round"/>
</svg>
