<svg width="40" height="39" viewBox="0 0 40 39" fill="none" xmlns="http://www.w3.org/2000/svg">
<path d="M23.3333 3.25H9.99996C9.1159 3.25 8.26806 3.59241 7.64294 4.2019C7.01782 4.8114 6.66663 5.63805 6.66663 6.5V32.5C6.66663 33.362 7.01782 34.1886 7.64294 34.7981C8.26806 35.4076 9.1159 35.75 9.99996 35.75H30C30.884 35.75 31.7319 35.4076 32.357 34.7981C32.9821 34.1886 33.3333 33.362 33.3333 32.5V13L23.3333 3.25Z" stroke="white" stroke-width="3" stroke-linecap="round" stroke-linejoin="round"/>
<path d="M23.3334 3.25V13H33.3334" stroke="white" stroke-width="2" stroke-linecap="round" stroke-linejoin="round"/>
<path d="M26.6667 21.125H13.3334" stroke="white" stroke-width="3" stroke-linecap="round" stroke-linejoin="round"/>
<path d="M26.6667 27.625H13.3334" stroke="white" stroke-width="3" stroke-linecap="round" stroke-linejoin="round"/>
<path d="M16.6667 14.625H15H13.3334" stroke="white" stroke-width="3" stroke-linecap="round" stroke-linejoin="round"/>
</svg>
