<svg width="47" height="46" viewBox="0 0 47 46" fill="none" xmlns="http://www.w3.org/2000/svg">
<path d="M23.5 42.1668C34.3156 42.1668 43.0834 33.5856 43.0834 23.0002C43.0834 12.4147 34.3156 3.8335 23.5 3.8335C12.6844 3.8335 3.91669 12.4147 3.91669 23.0002C3.91669 33.5856 12.6844 42.1668 23.5 42.1668Z" stroke="white" stroke-width="3" stroke-linecap="round" stroke-linejoin="round"/>
<path d="M17.8013 16.2501C18.2617 14.9691 19.1704 13.889 20.3666 13.201C21.5628 12.5129 22.9691 12.2614 24.3366 12.491C25.704 12.7205 26.9444 13.4164 27.8379 14.4552C28.7314 15.4941 29.2204 16.8089 29.2184 18.1668C29.2184 22.0001 23.5 26.5001 23.5 26.5001" stroke="white" stroke-width="3" stroke-linecap="round" stroke-linejoin="round"/>
<path d="M23.5 32.5835H23.5192" stroke="white" stroke-width="3" stroke-linecap="round" stroke-linejoin="round"/>
</svg>
