<svg width="38" height="40" viewBox="0 0 38 40" fill="none" xmlns="http://www.w3.org/2000/svg">
<path d="M11.0833 18.3335L17.4166 3.3335C18.6764 3.3335 19.8846 3.86028 20.7754 4.79796C21.6662 5.73564 22.1666 7.00741 22.1666 8.3335V15.0002H31.1283C31.5873 14.9947 32.042 15.0943 32.4608 15.2922C32.8796 15.49 33.2525 15.7814 33.5537 16.146C33.855 16.5107 34.0773 16.9399 34.2052 17.4039C34.3332 17.868 34.3638 18.3558 34.295 18.8335L32.11 33.8335C31.9954 34.6283 31.6119 35.3528 31.03 35.8735C30.4481 36.3942 29.707 36.6759 28.9433 36.6668H11.0833M11.0833 18.3335V36.6668M11.0833 18.3335H6.33329C5.49344 18.3335 4.68799 18.6847 4.09412 19.3098C3.50026 19.9349 3.16663 20.7828 3.16663 21.6668V33.3335C3.16663 34.2176 3.50026 35.0654 4.09412 35.6905C4.68799 36.3156 5.49344 36.6668 6.33329 36.6668H11.0833" stroke="white" stroke-width="3" stroke-linecap="round" stroke-linejoin="round"/>
</svg>
