<svg width="23" height="22" viewBox="0 0 23 22" fill="none" xmlns="http://www.w3.org/2000/svg">
<path d="M14.0074 5.24001C14.9894 5.42152 15.8918 5.8765 16.5993 6.54672C17.3067 7.21695 17.787 8.07192 17.9786 9.00222M14.0074 1.43018C16.0476 1.64489 17.95 2.51043 19.4024 3.88467C20.8548 5.25891 21.7708 7.06017 22 8.9927M20.9946 16.5933V19.4507C20.9958 19.716 20.9384 19.9785 20.8263 20.2216C20.7141 20.4646 20.5496 20.6828 20.3433 20.8621C20.1369 21.0414 19.8934 21.178 19.6281 21.2629C19.3629 21.3479 19.0818 21.3795 18.803 21.3556C15.7093 21.0371 12.7377 20.0356 10.1267 18.4316C7.69763 16.9692 5.63816 15.0181 4.0946 12.7168C2.39553 10.232 1.33816 7.40304 1.00816 4.45899C0.983037 4.19561 1.01608 3.93015 1.10518 3.67953C1.19428 3.4289 1.33749 3.1986 1.52568 3.00328C1.71388 2.80796 1.94295 2.6519 2.19829 2.54505C2.45364 2.4382 2.72967 2.38288 3.00882 2.38263H6.02489C6.51279 2.37808 6.9858 2.54177 7.35574 2.84318C7.72568 3.14459 7.96731 3.56316 8.0356 4.02086C8.1629 4.93529 8.39899 5.83313 8.73935 6.69727C8.87461 7.03818 8.90389 7.40868 8.82371 7.76486C8.74352 8.12105 8.55724 8.448 8.28694 8.70696L7.01014 9.91658C8.44132 12.3011 10.5253 14.2755 13.0423 15.6313L14.3191 14.4217C14.5924 14.1656 14.9375 13.9892 15.3135 13.9132C15.6895 13.8372 16.0805 13.865 16.4404 13.9931C17.3525 14.3156 18.3002 14.5392 19.2654 14.6598C19.7538 14.7251 20.1998 14.9581 20.5186 15.3146C20.8375 15.6711 21.0069 16.1262 20.9946 16.5933Z" stroke="#313131" stroke-linecap="round" stroke-linejoin="round"/>
</svg>
