<svg width="23" height="22" viewBox="0 0 23 22" fill="none" xmlns="http://www.w3.org/2000/svg">
<path d="M19.038 3.17228C18.0113 2.16276 16.7884 1.36234 15.4406 0.817701C14.0927 0.273065 12.647 -0.0048838 11.1876 6.49372e-05C5.07308 6.49372e-05 0.089591 4.85104 0.089591 10.803C0.089591 12.7107 0.604738 14.5639 1.56784 16.199L0 21.8022L5.8794 20.2978C7.50323 21.159 9.32864 21.6169 11.1876 21.6169C17.3022 21.6169 22.2857 16.7659 22.2857 10.8139C22.2857 7.92514 21.1322 5.21077 19.038 3.17228ZM11.1876 19.7855C9.53022 19.7855 7.90639 19.3495 6.48413 18.5319L6.14817 18.3357L2.65413 19.2295L3.58363 15.9156L3.35965 15.5777C2.43882 14.1463 1.94988 12.4919 1.9486 10.803C1.9486 5.85394 6.09217 1.82054 11.1765 1.82054C13.6402 1.82054 15.9584 2.75803 17.6942 4.4586C18.5537 5.2914 19.2348 6.28198 19.6981 7.37292C20.1614 8.46386 20.3976 9.63346 20.3931 10.8139C20.4155 15.763 16.2719 19.7855 11.1876 19.7855ZM16.2495 13.0704C15.9696 12.9396 14.6033 12.2856 14.3569 12.1875C14.0993 12.1002 13.9202 12.0566 13.7298 12.3183C13.5394 12.5908 13.0131 13.2013 12.8563 13.3757C12.6995 13.561 12.5315 13.5828 12.2515 13.4411C11.9716 13.3103 11.0757 13.0159 10.023 12.1002C9.19425 11.3808 8.64551 10.4978 8.47753 10.2253C8.32074 9.95274 8.45513 9.81102 8.60071 9.66931C8.7239 9.5494 8.88069 9.35318 9.01507 9.20056C9.14946 9.04795 9.20545 8.92804 9.29504 8.75362C9.38463 8.5683 9.33984 8.41569 9.27265 8.28488C9.20545 8.15406 8.64551 6.82413 8.42153 6.27908C8.19756 5.75583 7.96238 5.82123 7.7944 5.81033H7.25685C7.06647 5.81033 6.7753 5.87574 6.51773 6.14827C6.27135 6.42079 5.55463 7.07486 5.55463 8.40479C5.55463 9.73472 6.55133 11.021 6.68571 11.1955C6.8201 11.3808 8.64551 14.106 11.4228 15.2725C12.0836 15.5559 12.5987 15.7194 13.0019 15.8393C13.6626 16.0464 14.2673 16.0137 14.7489 15.9483C15.2864 15.872 16.3951 15.2943 16.6191 14.662C16.8543 14.0297 16.8543 13.4956 16.7759 13.3757C16.6975 13.2558 16.5295 13.2013 16.2495 13.0704Z" fill="#45CB7F"/>
</svg>
